<svg width="88" height="75" viewBox="0 0 88 75" fill="none" xmlns="http://www.w3.org/2000/svg">
<g clip-path="url(#clip0_2_621)">
<path d="M40.5236 54.4497C39.8182 54.4497 39.2466 54.9408 39.2466 55.5466C39.2466 56.1524 39.8182 56.6435 40.5236 56.6435H46.6532C47.3586 56.6435 47.9302 56.1524 47.9302 55.5466C47.9302 54.9408 47.3586 54.4497 46.6532 54.4497H40.5236Z" fill="#FFB400"/>
<path d="M15.3239 37.4178H23.765C24.2806 38.5704 25.5795 39.3922 27.1007 39.3922C28.6219 39.3922 29.9208 38.5704 30.4364 37.4178H32.1236C32.829 37.4178 33.4006 36.9266 33.4006 36.3209C33.4006 35.7151 32.829 35.224 32.1236 35.224H30.4364C29.9208 34.0713 28.6219 33.2495 27.1007 33.2495C25.5795 33.2495 24.2806 34.0713 23.765 35.224H15.3239C14.6185 35.224 14.0469 35.7151 14.0469 36.3209C14.0469 36.9266 14.6185 37.4178 15.3239 37.4178ZM27.1007 35.4433C27.6641 35.4433 28.1223 35.8369 28.1223 36.3209C28.1223 36.8048 27.6641 37.1984 27.1007 37.1984C26.5373 37.1984 26.0791 36.8048 26.0791 36.3209C26.0791 35.8369 26.5373 35.4433 27.1007 35.4433Z" fill="#FFB400"/>
<path d="M15.3239 31.1287H16.9543C17.4699 32.2813 18.7689 33.1031 20.29 33.1031C21.8112 33.1031 23.1102 32.2813 23.6257 31.1287H32.1236C32.829 31.1287 33.4006 30.6376 33.4006 30.0318C33.4006 29.426 32.829 28.9349 32.1236 28.9349H23.6257C23.1102 27.7823 21.8112 26.9604 20.29 26.9604C18.7689 26.9604 17.4699 27.7823 16.9543 28.9349H15.3239C14.6185 28.9349 14.0469 29.426 14.0469 30.0318C14.0469 30.6376 14.6185 31.1287 15.3239 31.1287ZM20.29 29.1543C20.8535 29.1543 21.3116 29.5478 21.3116 30.0318C21.3116 30.5158 20.8535 30.9093 20.29 30.9093C19.7266 30.9093 19.2684 30.5158 19.2684 30.0318C19.2684 29.5478 19.7266 29.1543 20.29 29.1543Z" fill="#FFB400"/>
<path d="M32.379 21.0371C33.0843 21.0371 33.656 20.546 33.656 19.9402C33.656 19.3344 33.0843 18.8433 32.379 18.8433C31.6738 18.8433 31.1021 19.3344 31.1021 19.9402C31.1021 20.546 31.6738 21.0371 32.379 21.0371Z" fill="#FFB400"/>
<path d="M28.86 21.0371C29.5653 21.0371 30.137 20.546 30.137 19.9402C30.137 19.3344 29.5653 18.8433 28.86 18.8433C28.1547 18.8433 27.583 19.3344 27.583 19.9402C27.583 20.546 28.1547 21.0371 28.86 21.0371Z" fill="#FFB400"/>
<path d="M25.3415 21.0371C26.0467 21.0371 26.6185 20.546 26.6185 19.9402C26.6185 19.3344 26.0467 18.8433 25.3415 18.8433C24.6362 18.8433 24.0645 19.3344 24.0645 19.9402C24.0645 20.546 24.6362 21.0371 25.3415 21.0371Z" fill="#FFB400"/>
<path d="M83.3455 7.50108H82.8672L83.2239 7.19468C84.2923 6.27693 84.2923 4.78352 83.2239 3.86578L80.4285 1.46457C79.36 0.546967 77.6216 0.546967 76.553 1.46457L69.526 7.50093H3.831C1.71867 7.50093 0 8.97708 0 10.7917V56.3447C0 58.5625 2.10041 60.3667 4.68233 60.3667H34.9293V68.1262H28.775C27.1321 68.1262 25.7954 69.2745 25.7954 70.6857V71.7817C25.7954 73.1929 27.1321 74.3412 28.775 74.3412H58.4014C60.0443 74.3412 61.3811 73.1929 61.3811 71.7817V70.6857C61.3811 69.2745 60.0443 68.1262 58.4014 68.1262H52.2471V60.3667H65.8932C66.5986 60.3667 67.1701 59.8756 67.1701 59.2698C67.1701 58.664 66.5986 58.1729 65.8932 58.1729H4.68233C3.50868 58.1729 2.554 57.3528 2.554 56.3447V53.0978H84.6225V56.3447C84.6225 57.3528 83.6678 58.1729 82.4941 58.1729H71.8525C71.1471 58.1729 70.5755 58.664 70.5755 59.2698C70.5755 59.8756 71.1471 60.3667 71.8525 60.3667H82.4941C85.0761 60.3667 87.1765 58.5625 87.1765 56.3447V10.7918C87.1765 8.97737 85.4578 7.50108 83.3455 7.50108V7.50108ZM58.4014 70.3202C58.6362 70.3202 58.8271 70.4843 58.8271 70.6858V71.7819C58.8271 71.9834 58.6362 72.1475 58.4014 72.1475H28.775C28.5402 72.1475 28.3494 71.9834 28.3494 71.7819V70.6858C28.3494 70.4843 28.5402 70.3202 28.775 70.3202H58.4014ZM37.4833 60.367H49.6933V68.1265H37.4833V60.367ZM78.359 3.01604C78.4319 2.95359 78.5501 2.95373 78.6226 3.01604L81.4179 5.4171C81.4906 5.47955 81.4906 5.5812 81.4179 5.6435L78.7507 7.93458L75.6918 5.30711L78.359 3.01604ZM73.8858 6.85844L76.9445 9.4859L76.0538 10.251L72.9951 7.6235L73.8858 6.85844ZM71.1891 9.17482L74.248 11.8023L59.1366 24.7825L56.0778 22.1551L71.1891 9.17482ZM69.2985 19.2033C71.0354 19.2033 72.4484 20.4171 72.4484 21.9091C72.4484 23.401 71.0354 24.6148 69.2985 24.6148C67.5616 24.6148 66.1486 23.401 66.1486 21.9091C66.1486 21.8917 66.1513 21.8748 66.1516 21.8574L69.2389 19.206C69.2588 19.2057 69.2784 19.2033 69.2985 19.2033ZM56.9191 25.9803L53.1397 27.3063L54.6833 24.0599L56.9191 25.9803ZM84.6225 50.9043H2.554V10.7918C2.554 10.187 3.12677 9.6949 3.831 9.6949H66.9721L65.025 11.3675H21.6239C20.9184 11.3675 20.3469 11.8586 20.3469 12.4644C20.3469 13.0702 20.9184 13.5613 21.6239 13.5613H62.4711L53.4639 21.2987C53.2093 21.5193 53.0103 21.7767 52.8732 22.0648L50.0207 28.0636C49.759 28.6145 49.9065 29.2424 50.3963 29.663C50.7251 29.9455 51.1624 30.0952 51.6083 30.0952C51.8269 30.0952 52.0474 30.0592 52.2584 29.9854L59.2419 27.5353C59.5677 27.421 59.8592 27.2554 60.1112 27.0455L63.996 23.709C64.8329 25.5224 66.8931 26.8087 69.2987 26.8087C72.4438 26.8087 75.0026 24.6108 75.0026 21.9092C75.0026 19.8432 73.5054 18.0737 71.3946 17.3547L75.8112 13.5614H80.1213V47.0381H79.4445L74.8166 40.1529C74.4642 39.6281 73.6827 39.4483 73.0723 39.7514C72.4615 40.0543 72.2523 40.7251 72.6049 41.2498L76.4955 47.0381H58.6567L56.7434 44.1915L65.6628 30.9214L69.6251 36.8166C69.9778 37.3413 70.7589 37.5212 71.3694 37.2181C71.9802 36.9152 72.1894 36.2443 71.8368 35.7197L67.6096 29.4306C67.2032 28.826 66.4755 28.4651 65.6626 28.4651C64.8498 28.4651 64.1219 28.826 63.7154 29.4306L55.2685 41.9979L44.4304 25.8731C44.0239 25.2685 43.2962 24.9076 42.4832 24.9076C41.6705 24.9076 40.9426 25.2685 40.5362 25.8731L37.6568 30.1571V18.3992C37.6568 16.988 36.3201 15.8398 34.6772 15.8398H12.77C11.1271 15.8398 9.79033 16.988 9.79033 18.3992V42.385C9.79033 43.3931 10.745 44.2132 11.9187 44.2132H28.2096L26.3108 47.0382H7.05533V13.5613H15.6645C16.3699 13.5613 16.9415 13.0702 16.9415 12.4644C16.9415 11.8586 16.3699 11.3675 15.6645 11.3675H6.62967C5.45602 11.3675 4.50134 12.1875 4.50134 13.1956V47.4036C4.50134 48.4117 5.45602 49.2318 6.62967 49.2318H80.547C81.7206 49.2318 82.6753 48.4117 82.6753 47.4036V13.1956C82.6753 12.1875 81.7206 11.3675 80.547 11.3675H78.3655L80.313 9.6949H83.3455C84.0497 9.6949 84.6225 10.187 84.6225 10.7918V50.9043ZM35.1033 24.4741V42.0191H12.3443V24.4741H35.1033ZM12.3443 22.2803V18.3989C12.3443 18.1974 12.5352 18.0333 12.77 18.0333H34.6777C34.9125 18.0333 35.1033 18.1974 35.1033 18.3989V22.2803H12.3443ZM31.1588 44.2129H35.529C36.7027 44.2129 37.6573 43.3928 37.6573 42.3847V40.0612C37.9768 40.1928 38.3324 40.264 38.705 40.264C39.5768 40.264 40.3573 39.8767 40.793 39.2284L42.9663 35.9951C43.032 35.8974 43.1324 35.8768 43.2048 35.8768C43.2775 35.8768 43.378 35.8974 43.4435 35.9951L44.7833 37.9884C45.2192 38.6371 45.9999 39.0242 46.8718 39.0242C47.7436 39.0242 48.5243 38.6371 48.96 37.9886L49.2927 37.4937L55.7076 47.0378H29.26L31.1588 44.2129ZM37.6573 36.3893V34.5444L42.4839 27.3638L47.818 35.2998L46.8717 36.7077L45.6553 34.8981C45.1438 34.1371 44.2278 33.6828 43.2046 33.6828C42.1817 33.6828 41.2656 34.1371 40.7541 34.8981L38.7045 37.9475L37.6573 36.3893Z" fill="#FFB400"/>
</g>
<defs>
<clipPath id="clip0_2_621">
<rect width="87.1765" height="74.8824" fill="white" transform="translate(0 0.117676)"/>
</clipPath>
</defs>
</svg>
